<?xml version="1.0" standalone="no"?>
<!DOCTYPE svg PUBLIC "-//W3C//DTD SVG 20010904//EN"
 "http://www.w3.org/TR/2001/REC-SVG-20010904/DTD/svg10.dtd">
<svg version="1.0" xmlns="http://www.w3.org/2000/svg"
 width="216.000000pt" height="216.000000pt" viewBox="0 0 216.000000 216.000000"
 preserveAspectRatio="xMidYMid meet">
<metadata>
Created by potrace 1.11, written by Peter Selinger 2001-2013
</metadata>
<g transform="translate(0.000000,216.000000) scale(0.100000,-0.100000)"
fill="#000000" stroke="none">
<path d="M92 1088 l3 -993 985 0 985 0 3 993 2 992 -990 0 -990 0 2 -992z
m1257 488 c42 -43 6 -162 -106 -342 l-50 -81 44 13 c92 28 108 -23 45 -146
l-38 -75 113 58 c64 33 124 57 136 55 34 -5 33 -43 -3 -100 -17 -28 -29 -52
-27 -55 2 -2 31 4 63 12 128 35 280 29 272 -11 -2 -14 -21 -17 -113 -19 -87
-2 -128 -8 -195 -29 -47 -15 -94 -30 -106 -32 -39 -10 -34 22 13 83 25 32 49
66 54 75 9 16 7 17 -17 8 -30 -12 -129 -65 -216 -117 -91 -54 -102 -30 -34 74
69 108 105 185 83 178 -124 -38 -111 -29 -198 -150 -90 -126 -191 -230 -234
-241 -58 -14 -96 30 -80 93 14 59 204 221 325 278 64 30 233 317 234 399 1 41
1 41 -39 44 -107 8 -368 -185 -400 -295 -6 -21 0 -30 40 -57 16 -12 17 -16 6
-29 -27 -33 -91 18 -91 73 0 99 209 292 374 346 51 17 123 12 145 -10z m-669
-481 l0 -144 -66 -101 c-36 -55 -69 -100 -72 -100 -4 1 -40 45 -79 99 l-73 98
0 147 0 146 145 0 145 0 0 -145z m1100 -505 l0 -30 -680 0 -680 0 0 30 0 30
680 0 680 0 0 -30z"/>
<path d="M948 965 c-47 -36 -100 -83 -117 -104 -34 -43 -41 -81 -14 -81 36 0
92 59 226 238 21 27 -12 9 -95 -53z"/>
</g>
</svg>
